<?xml version="1.0" encoding="utf-8"?>
<!-- Generator: Adobe Illustrator 16.0.3, SVG Export Plug-In . SVG Version: 6.00 Build 0)  -->
<!DOCTYPE svg PUBLIC "-//W3C//DTD SVG 1.1//EN" "http://www.w3.org/Graphics/SVG/1.1/DTD/svg11.dtd">
<svg version="1.1" id="Capa_1" xmlns="http://www.w3.org/2000/svg" xmlns:xlink="http://www.w3.org/1999/xlink" x="0px" y="0px"
	 width="279px" height="287px" viewBox="0 0 279 287" enable-background="new 0 0 279 287" xml:space="preserve">
<path fill="#E7BD62" d="M114.85,270.25c48.818-19.75,71.759-24.036,85.15-28.5c-2.5-13,1.447-21.25,1.447-21.25"/>
<path fill="#398E8E" stroke="#000000" stroke-width="4" stroke-linecap="round" stroke-linejoin="round" stroke-miterlimit="10" d="
	M132.897,96.239c0,0-78.989,71.594-75.776,125.928c1.213,23.667,15.936,43.229,27.074,47.614
	c11.138,4.385,30.884,5.332,42.345-6.809c11.461-12.14,21.462-29.806,26.128-33.473s45.912-12.139,46.372-6.318
	c0.46,5.818-0.942,16.451,4.009,22.885c4.952,6.435,28.285,17.102,55.285-14.565s2.723-75.392-17.639-92.029
	C220.333,122.835,197.127,112.978,132.897,96.239z"/>
<path fill="#E7BD62" d="M201.447,220.5c4.775-4.775,14.053-9.666,23.053-12.333s12.986-22.155,14.333-23.5S237,166,235.5,162
	s-5.5-9.5-5.5-9.5S217,164,212,163s-9.5-13.5-26.5-11.5s-23.982,12.107-29,15.5s-1,7.102-1,7.102s7.889,17.279,7.889,21.59
	c0,4.31-1.889,14.309-7.889,17.809s-0.301,5.27-0.301,5.27l1.109,3.676c0,0-13.31,35.306-41.459,47.806
	c48.818-19.75,72.15-23,85.15-28.5C198.417,226.333,201.447,220.5,201.447,220.5z"/>
<path fill="#EA6857" d="M134.333,245.167c-0.666,5.334-5.561,17.808-5.561,17.808s6.06-2.584,12.167-12.517
	c6.108-9.933,15.061-33.959,14.561-36.958s0.501-11.667,2.167-18.333s-0.334-21.666-5.334-28.666s-25.666-25.667-25.666-25.667
	s3.165,13.168-0.334,16.667s-6.53,5.333-16.432,5.333c-9.902,0-14.235,6.333-15.568,10s-10,13.667-12.333,13.667
	s-4.001,4.332-3.667,8.666S87,218.835,103,221.501s10.334-3.668,15.667-2.334s15.175,11.668,15.175,15.334
	S134.333,245.167,134.333,245.167z"/>
<path fill="#E3955C" d="M154.75,172c0,0-21.471,23.512-11,40.25c4.875,6.007,12.25,6,15.5,0s5.5-20.75,3-28S154.75,172,154.75,172z"
	/>
<path fill="none" stroke="#000000" stroke-width="4" stroke-linecap="round" stroke-linejoin="round" stroke-miterlimit="10" d="
	M155.375,217.75C153.625,228.875,146,242.5,146,242.5c-5.393,9.659-16.999,26.667-41.461,30.727
	c-11.847,1.965-25.981-3.787-34.534-15.266c-7.229-9.699-13.334-22-13.334-39.555s9.069-39.455,22.279-59.865
	c16.011-24.733,53.947-62.302,53.947-62.302s23.25,3.336,72.313,21.792c49.063,18.455,62.452,59.076,64.142,68.529
	c1.688,9.453,1.688,30.383-12.492,48.274c-14.178,17.894-38.483,18.739-38.483,18.739s-14.208,1.092-17.708-13.241
	s0.333-17.999,3.5-21.833"/>
<ellipse transform="matrix(-0.4973 -0.8676 0.8676 -0.4973 75.7189 169.655)" fill="#398E8E" stroke="#000000" stroke-width="4" stroke-linecap="round" stroke-linejoin="round" stroke-miterlimit="10" cx="87.011" cy="62.89" rx="37.277" ry="27.022"/>
<ellipse transform="matrix(0.0278 -0.9996 0.9996 0.0278 110.1599 203.9384)" fill="#398E8E" stroke="#000000" stroke-width="4" stroke-linecap="round" stroke-linejoin="round" stroke-miterlimit="10" cx="159.925" cy="45.336" rx="37.277" ry="27.022"/>
<path fill="#398E8E" stroke="#000000" stroke-width="4" stroke-linecap="round" stroke-linejoin="round" stroke-miterlimit="10" d="
	M251.184,71.072c-3.279,18.042-16.539,30.74-29.615,28.359c-13.075-2.373-21.018-18.925-17.739-36.965
	c3.28-18.038,16.538-30.736,29.614-28.358C246.52,36.483,254.461,53.033,251.184,71.072z"/>
<path fill="#398E8E" stroke="#000000" stroke-width="4" stroke-linecap="round" stroke-linejoin="round" stroke-miterlimit="10" d="
	M53.595,101.907c13.355,12.565,16.798,30.599,7.687,40.275c-9.105,9.681-27.313,7.341-40.666-5.223
	C7.264,124.394,3.82,106.363,12.93,96.684C22.035,87.004,40.242,89.344,53.595,101.907z"/>
<path d="M234.245,155.129c-0.916-1.664-2.206-3.148-3.481-4.58c-1.05-1.178-2.25-0.906-3.365,0.137
	c-3.082,2.904-6.19,5.781-9.297,8.657c-3.389,3.138-8.593,2.987-11.679-0.438c-6.571-7.309-15.101-9.615-24.546-7.844
	c-5.58,1.047-10.738,3.539-15.344,6.975c-3.739,2.792-7.426,5.66-11.354,8.66c-0.793-0.967-1.779-2.047-2.627-3.226
	c-5.627-7.804-11.711-15.187-19.583-20.855c-2.443-1.761-5.095-3.244-7.742-4.692c-0.562-0.309-1.51,0.085-2.278,0.153
	c0.117,0.641,0.115,1.332,0.375,1.903c0.453,0.987,1.175,1.859,1.595,2.855c1.926,4.509,2.885,9.088,0.563,13.771
	c-1.426,2.881-3.571,4.676-6.985,4.471c-1.473-0.092-2.947-0.207-4.423-0.268c-11.42-0.479-17.228,2.627-21.019,11.592
	c-0.8,1.893-1.873,3.66-2.763,5.516c-2.227,4.605-6.052,6.281-10.916,5.87c-1.59-0.136-2.141,0.472-2.456,1.895
	c-1.358,6.116,0.069,11.904,2.186,17.532c1.936,5.139,5.307,9.355,9.415,12.995c6.537,5.79,14.042,8.003,22.658,6.252
	c1.701-0.339,3.401-0.741,5.118-0.905c0.239-0.021,0.462-0.013,0.694-0.021c0.183-0.014,0.365-0.047,0.548-0.055
	c3.437-1.102,7.139-0.521,9.788,2.727c1.34,1.643,1.96,3.404,2.426,5.329c0.29,0.815,0.508,1.649,0.696,2.493
	c0.017-0.172,0.04-0.344,0.053-0.518c0.501-6.673-3.616-12.971-9.447-13.844c-2.919-0.434-6.24,0.093-9.066,1.083
	c-7.437,2.616-13.833,0.616-19.717-3.781c-6.436-4.807-10.119-11.496-12.143-19.177c-0.386-1.463-0.053-2.475,1.112-3.548
	c1.385-1.282,2.399-2.962,3.625-4.423c0.437-0.521,0.957-1.059,1.551-1.338c3.16-1.465,5.493-3.775,7.113-6.812
	c1.207-2.267,2.408-4.545,3.478-6.879c2.405-5.245,8.505-8.905,14.604-8.593c2.053,0.107,4.114,0.273,6.137,0.623
	c4.115,0.715,6.923-1.082,9.098-4.355c2.125-3.206,3.156-6.717,3.211-10.549c0.016-1.121,0.151-2.236,0.253-3.641
	c0.604,0.393,0.945,0.549,1.205,0.791c5.607,5.31,11.045,10.783,15.352,17.238c1.277,1.916,2.195,4.069,3.328,6.086
	c0.693,1.227,0.498,2.18-0.35,3.315c-4.287,5.745-8.006,11.823-10.123,18.744c-1.739,5.669-2.925,11.362-0.288,17.122
	c2.411,5.271,5.935,9.009,12.229,9.011c0.3,0,0.598,0.132,1.046,0.233c-0.769,6.578,2.774,12.065,4.683-1.897
	c0.123-0.921,0.771-1.87,1.404-2.61c7.893-9.244,10.348-19.539,5.725-31.007c-1.547-3.847-3.771-7.427-5.738-11.101
	c-0.457-0.854-0.734-1.483,0.013-2.397c6.909-8.444,15.729-13.489,26.536-14.938c7.411-0.997,14.051,0.556,19.384,6.217
	c0.956,1.02,2.115,1.888,3.3,2.65c3.578,2.307,7.162,2.138,10.633-0.281c1.313-0.916,2.515-2.01,3.86-2.875
	c0.472-0.301,1.416-0.436,1.819-0.166c2.792,1.89,5.648,2.324,8.775,0.627c0.43,0.986,0.949,1.824,1.164,2.736
	c0.846,3.685,1.787,7.358,2.342,11.09c0.9,6.012,0.392,11.882-2.166,17.539c-2.992,6.612-7.131,12.031-14.121,14.766
	c-3.049,1.195-6.088,2.432-9.198,3.467c-4.249,1.417-7.302,4.344-9.677,7.887c-3.01,4.496-4.223,9.562-3.817,15.037
	c0.478,6.48,1.617,12.479,7.894,16.191c3.775,2.234,7.768,3.417,12.045,3.824c-2.287-1.291-4.598-2.488-6.95-3.59
	c-4.899-2.293-7.771-6.158-9.002-11.351c-2.534-10.712,1.476-18.997,11.021-24.163c3.762-2.029,8.01-3.137,11.938-4.884
	c2.207-0.979,4.568-2.047,6.244-3.7c4.193-4.142,7.125-9.328,8.27-15.021C241.57,178.492,240.438,166.398,234.245,155.129z
	 M160.902,202.539c-1.284,3.806-3.221,7.307-6.73,9.592c-3.721,2.432-6.719,1.51-9.232-2.126c-1.985-2.873-2.728-6.267-2.199-9.754
	c0.43-2.846,0.941-5.739,1.898-8.44c2.143-6.041,5.828-11.229,9.771-16.871C159.366,183.866,164.382,192.23,160.902,202.539z
	 M229.784,159.205c-1.315-0.041-2.618-0.615-3.925-0.958c-0.078-0.323-0.159-0.647-0.25-0.979c1.018-0.711,1.957-1.74,3.074-2.004
	c0.633-0.148,1.754,0.813,2.322,1.535C231.955,158.012,231.354,159.256,229.784,159.205z"/>
<path d="M194.832,167.913c2.197-0.017,4.408-0.138,6.596,0.024c0.574,0.043,1.084,0.971,1.621,1.49
	c-0.611,0.346-1.191,0.846-1.849,1.002c-1.05,0.243-2.164,0.194-3.231,0.381c-4.117,0.72-6.572,3.155-7.342,7.228
	c-0.188,0.999-0.216,2.044-0.545,2.987c-0.195,0.558-0.836,0.955-1.279,1.43c-0.416-0.523-1.132-1.012-1.195-1.573
	c-0.453-4.028,0.395-7.675,3.69-10.36c1.056-0.859,2.298-1.487,3.456-2.222C194.779,168.172,194.807,168.043,194.832,167.913z"/>
<path d="M92.748,201.184c0.884,1.822,1.768,3.646,2.65,5.471c-0.242,0.121-0.484,0.244-0.73,0.367
	c-0.613-0.941-1.171-1.926-1.849-2.816c-1.885-2.473-3.841-4.891-5.715-7.369c-0.379-0.501-0.524-1.179-0.775-1.775
	c0.728-0.065,1.533-0.365,2.161-0.147c1.008,0.353,1.896,1.045,2.836,1.595c4.723,2.76,9.605,5.109,15.025,6.205
	c0.646,0.13,1.177,0.833,1.76,1.271c-0.73,0.315-1.568,1.039-2.175,0.88c-3.415-0.886-6.794-1.931-10.141-3.054
	c-0.907-0.302-1.663-1.055-2.486-1.604C93.123,200.531,92.933,200.857,92.748,201.184z"/>
<path d="M108.338,174.465c2.763-0.986,5.299,0.086,6.209,2.624c0.902,2.519-0.266,5.007-2.798,5.966
	c-2.577,0.971-5.569-0.135-6.438-2.386C104.283,178.002,105.516,175.475,108.338,174.465z"/>
<path d="M85.434,190.701c3.69,0.527,7.39,1.015,11.069,1.625c0.467,0.078,0.832,0.779,1.243,1.193
	c-0.43,0.317-0.916,0.965-1.279,0.901c-3.514-0.608-7.016-1.308-10.498-2.081c-0.379-0.084-0.618-0.795-0.923-1.213
	C85.175,190.984,85.306,190.843,85.434,190.701z"/>
<path fill="none" stroke="#000000" stroke-width="4" stroke-linecap="round" stroke-miterlimit="10" d="M120.941,267.887
	c5.559-3.72,11.726-10.886,12.726-21.053s-2.334-24.167-8.834-26.5s-6.541-1.083-10.208-0.417"/>
<path d="M229.188,152.938c-1.25,0.438-3.125,0.875-3.75,2.813s-1.875,2.563-0.25,3.438s3,2.313,5.438,1.688s2.688-0.688,2.875-2.313
	s-1.125-3.813-2-4.375S229.188,152.938,229.188,152.938z"/>
</svg>
