<?xml version="1.0" encoding="utf-8"?>
<!-- Generator: Adobe Illustrator 16.0.3, SVG Export Plug-In . SVG Version: 6.00 Build 0)  -->
<!DOCTYPE svg PUBLIC "-//W3C//DTD SVG 1.1//EN" "http://www.w3.org/Graphics/SVG/1.1/DTD/svg11.dtd">
<svg version="1.1" id="Capa_1" xmlns="http://www.w3.org/2000/svg" xmlns:xlink="http://www.w3.org/1999/xlink" x="0px" y="0px"
	 width="287px" height="290px" viewBox="0 0 287 290" enable-background="new 0 0 287 290" xml:space="preserve">
<path fill="#E7BD62" d="M114.85,714.25c48.818-19.75,71.759-24.036,85.15-28.5c-2.5-13,1.447-21.25,1.447-21.25"/>
<path fill="#398E8E" stroke="#000000" stroke-width="4" stroke-linecap="round" stroke-linejoin="round" stroke-miterlimit="10" d="
	M132.897,540.239c0,0-78.989,71.594-75.776,125.928c1.213,23.667,15.936,43.229,27.074,47.614
	c11.138,4.385,30.884,5.332,42.345-6.809c11.461-12.14,21.462-29.806,26.128-33.473s45.912-12.138,46.372-6.319
	c0.46,5.819-0.942,16.452,4.009,22.887c4.952,6.434,28.285,17.101,55.285-14.566s2.723-75.392-17.639-92.029
	C220.333,566.835,197.127,556.978,132.897,540.239z"/>
<path fill="#E7BD62" d="M201.447,664.5c4.775-4.776,14.053-9.666,23.053-12.333s12.986-22.155,14.333-23.5S237,610,235.5,606
	s-5.5-9.5-5.5-9.5S217,608,212,607s-9.5-13.5-26.5-11.5s-23.982,12.108-29,15.5s-1,7.102-1,7.102s7.889,17.279,7.889,21.59
	c0,4.31-1.889,14.309-7.889,17.809s-0.301,5.269-0.301,5.269l1.109,3.678c0,0-13.31,35.305-41.459,47.805
	c48.818-19.75,72.15-23,85.15-28.5C198.417,670.333,201.447,664.5,201.447,664.5z"/>
<path fill="#EA6857" d="M134.333,689.167c-0.666,5.334-5.561,17.807-5.561,17.807s6.06-2.584,12.168-12.516S156,660.499,155.5,657.5
	s0.501-11.667,2.167-18.333s-0.334-21.666-5.334-28.666s-25.666-25.667-25.666-25.667s3.165,13.168-0.334,16.667
	s-6.53,5.333-16.432,5.333c-9.902,0-14.235,6.333-15.568,10s-10,13.667-12.333,13.667s-4.001,4.332-3.667,8.666
	S87,662.835,103,665.501s10.334-3.668,15.667-2.334s15.175,11.668,15.175,15.334S134.333,689.167,134.333,689.167z"/>
<path fill="#E3955C" d="M154.75,616c0,0-21.471,23.512-11,40.25c4.875,6.007,12.25,6,15.5,0s5.5-20.75,3-28S154.75,616,154.75,616z"
	/>
<path fill="none" stroke="#000000" stroke-width="4" stroke-linecap="round" stroke-linejoin="round" stroke-miterlimit="10" d="
	M155.375,661.75C153.625,672.875,146,686.5,146,686.5c-5.392,9.659-16.999,26.667-41.461,30.726
	c-11.847,1.967-25.981-3.785-34.534-15.265c-7.229-9.699-13.334-22-13.334-39.555c0-17.556,9.069-39.455,22.279-59.865
	c16.011-24.733,53.947-62.302,53.947-62.302s23.25,3.336,72.313,21.792c49.063,18.455,62.452,59.077,64.142,68.53
	c1.688,9.451,1.688,30.383-12.492,48.273c-14.178,17.893-38.483,18.739-38.483,18.739s-14.208,1.092-17.708-13.241
	s0.333-17.999,3.5-21.833"/>
<path fill="none" d="M20.198,749.237c0,0,107.001,46.464,219.32-5.477c112.326-51.938,137.277-156.637,134.707-155.25"/>
<text transform="matrix(1.0548 0.2312 -0.2141 0.9768 45.1128 757.9443)" font-family="'ArialMT'" font-size="48">M</text>
<text transform="matrix(1.07 0.1456 -0.1349 0.9909 76.7642 764.502)" font-family="'ArialMT'" font-size="48.0019">i</text>
<text transform="matrix(1.0783 0.0572 -0.053 0.9986 94.0469 767.1104)" font-family="'ArialMT'" font-size="48">a</text>
<text transform="matrix(1.0783 -0.0575 0.0532 0.9986 127.4746 768.6641)" font-family="'ArialMT'" font-size="48">u</text>
<text transform="matrix(1.0641 -0.1835 0.1699 0.9855 156.7744 767.1777)" font-family="'ArialMT'" font-size="48.0018">D</text>
<text transform="matrix(1.0381 -0.2975 0.2755 0.9613 192.1768 760.5654)" font-family="'ArialMT'" font-size="48">o</text>
<text transform="matrix(1.0139 -0.3717 0.3442 0.9389 212.4844 754.6094)" font-family="'ArialMT'" font-size="48">t</text>
<text transform="matrix(0.9864 -0.4394 0.4069 0.9135 228.4121 748.7158)" font-family="'ArialMT'" font-size="48">e</text>
<text transform="matrix(0.9474 -0.5181 0.4798 0.8774 251.1758 738.082)" font-family="'ArialMT'" font-size="48">.</text>
<text transform="matrix(0.8979 -0.5999 0.5556 0.8315 261.8008 732.7432)" font-family="'ArialMT'" font-size="48.002">C</text>
<text transform="matrix(0.8077 -0.7167 0.6637 0.748 290.834 713.0762)" font-family="'ArialMT'" font-size="48">a</text>
<text transform="matrix(0.7238 -0.8014 0.7421 0.6703 315.6494 690.4541)" font-family="'ArialMT'" font-size="48">o</text>
<ellipse transform="matrix(-0.4973 -0.8676 0.8676 -0.4973 -309.4827 834.4652)" fill="#398E8E" stroke="#000000" stroke-width="4" stroke-linecap="round" stroke-linejoin="round" stroke-miterlimit="10" cx="87.019" cy="506.896" rx="37.277" ry="27.023"/>
<ellipse transform="matrix(0.0278 -0.9996 0.9996 0.0278 -333.6661 635.5818)" fill="#398E8E" stroke="#000000" stroke-width="4" stroke-linecap="round" stroke-linejoin="round" stroke-miterlimit="10" cx="159.921" cy="489.33" rx="37.278" ry="27.023"/>
<path fill="#398E8E" stroke="#000000" stroke-width="4" stroke-linecap="round" stroke-linejoin="round" stroke-miterlimit="10" d="
	M251.184,515.072c-3.279,18.042-16.539,30.739-29.615,28.358c-13.075-2.373-21.018-18.925-17.739-36.965
	c3.28-18.038,16.538-30.735,29.614-28.357C246.52,480.483,254.461,497.033,251.184,515.072z"/>
<path fill="#398E8E" stroke="#000000" stroke-width="4" stroke-linecap="round" stroke-linejoin="round" stroke-miterlimit="10" d="
	M53.595,545.907c13.355,12.564,16.798,30.599,7.687,40.274c-9.105,9.682-27.313,7.343-40.666-5.223
	C7.264,568.394,3.82,550.363,12.93,540.684C22.035,531.004,40.242,533.344,53.595,545.907z"/>
<path d="M234.245,599.129c-0.916-1.664-2.206-3.148-3.481-4.58c-1.05-1.178-2.25-0.907-3.365,0.138
	c-3.082,2.903-6.19,5.78-9.297,8.656c-3.389,3.139-8.593,2.987-11.679-0.438c-6.571-7.31-15.101-9.616-24.546-7.844
	c-5.58,1.047-10.738,3.537-15.344,6.974c-3.739,2.792-7.426,5.66-11.354,8.66c-0.793-0.966-1.779-2.046-2.627-3.226
	c-5.627-7.804-11.711-15.187-19.583-20.855c-2.443-1.762-5.095-3.244-7.742-4.692c-0.562-0.309-1.51,0.085-2.278,0.153
	c0.117,0.641,0.115,1.332,0.375,1.902c0.453,0.987,1.175,1.859,1.595,2.855c1.926,4.509,2.885,9.088,0.563,13.771
	c-1.426,2.881-3.571,4.676-6.985,4.47c-1.473-0.091-2.947-0.207-4.423-0.269c-11.42-0.479-17.228,2.627-21.019,11.592
	c-0.8,1.894-1.873,3.66-2.763,5.517c-2.227,4.604-6.052,6.281-10.916,5.87c-1.59-0.137-2.141,0.472-2.456,1.895
	c-1.358,6.116,0.069,11.904,2.186,17.532c1.936,5.138,5.307,9.354,9.415,12.995c6.537,5.79,14.042,8.003,22.658,6.252
	c1.701-0.339,3.401-0.741,5.118-0.905c0.239-0.021,0.462-0.013,0.694-0.021c0.183-0.015,0.365-0.046,0.548-0.056
	c3.437-1.101,7.139-0.52,9.788,2.728c1.34,1.643,1.96,3.405,2.426,5.329c0.29,0.814,0.508,1.649,0.696,2.494
	c0.017-0.174,0.04-0.346,0.053-0.519c0.501-6.673-3.616-12.971-9.447-13.844c-2.919-0.433-6.24,0.093-9.066,1.083
	c-7.437,2.617-13.833,0.617-19.717-3.781c-6.436-4.807-10.119-11.496-12.143-19.177c-0.386-1.463-0.053-2.474,1.112-3.548
	c1.385-1.282,2.399-2.961,3.625-4.422c0.437-0.521,0.957-1.06,1.551-1.34c3.16-1.465,5.493-3.774,7.113-6.811
	c1.207-2.266,2.408-4.545,3.478-6.879c2.405-5.245,8.505-8.905,14.604-8.593c2.053,0.107,4.114,0.273,6.137,0.623
	c4.115,0.715,6.923-1.081,9.098-4.355c2.125-3.206,3.156-6.717,3.211-10.549c0.016-1.121,0.151-2.236,0.253-3.64
	c0.604,0.392,0.945,0.548,1.205,0.789c5.607,5.311,11.046,10.783,15.352,17.239c1.277,1.916,2.195,4.069,3.328,6.085
	c0.693,1.228,0.498,2.182-0.35,3.316c-4.287,5.745-8.006,11.823-10.123,18.744c-1.739,5.669-2.925,11.362-0.288,17.122
	c2.411,5.271,5.935,9.009,12.229,9.011c0.3,0,0.598,0.132,1.046,0.232c-0.769,6.579,2.774,12.066,4.683-1.896
	c0.123-0.921,0.771-1.87,1.404-2.61c7.893-9.243,10.348-19.54,5.725-31.007c-1.547-3.847-3.771-7.427-5.738-11.101
	c-0.457-0.854-0.734-1.483,0.013-2.397c6.909-8.443,15.729-13.488,26.536-14.938c7.411-0.997,14.051,0.556,19.384,6.217
	c0.956,1.019,2.115,1.888,3.3,2.649c3.578,2.308,7.162,2.139,10.633-0.28c1.313-0.916,2.515-2.011,3.86-2.875
	c0.472-0.3,1.416-0.436,1.819-0.166c2.792,1.89,5.648,2.325,8.775,0.627c0.43,0.985,0.949,1.825,1.164,2.735
	c0.846,3.686,1.787,7.359,2.342,11.091c0.9,6.012,0.392,11.882-2.166,17.54c-2.992,6.611-7.131,12.029-14.121,14.765
	c-3.049,1.196-6.088,2.432-9.198,3.467c-4.249,1.417-7.302,4.343-9.677,7.886c-3.01,4.497-4.223,9.563-3.817,15.038
	c0.478,6.48,1.617,12.479,7.894,16.191c3.775,2.235,7.768,3.417,12.045,3.824c-2.287-1.291-4.598-2.488-6.95-3.591
	c-4.899-2.293-7.771-6.157-9.002-11.35c-2.534-10.712,1.476-18.997,11.021-24.163c3.762-2.028,8.01-3.137,11.938-4.884
	c2.207-0.979,4.568-2.047,6.244-3.7c4.193-4.142,7.125-9.329,8.27-15.021C241.57,622.492,240.438,610.398,234.245,599.129z
	 M160.902,646.539c-1.284,3.806-3.221,7.307-6.73,9.592c-3.721,2.433-6.719,1.509-9.232-2.126c-1.985-2.873-2.728-6.267-2.2-9.754
	c0.43-2.846,0.942-5.739,1.899-8.441c2.143-6.041,5.828-11.229,9.771-16.87C159.366,627.866,164.382,636.231,160.902,646.539z
	 M229.784,603.205c-1.315-0.041-2.618-0.615-3.925-0.958c-0.078-0.323-0.159-0.648-0.25-0.979c1.018-0.712,1.957-1.739,3.074-2.004
	c0.633-0.148,1.754,0.813,2.322,1.535C231.955,602.012,231.354,603.256,229.784,603.205z"/>
<path d="M194.832,611.913c2.197-0.016,4.408-0.138,6.596,0.025c0.574,0.042,1.084,0.97,1.621,1.489
	c-0.611,0.347-1.191,0.846-1.849,1.001c-1.05,0.244-2.164,0.195-3.231,0.381c-4.117,0.721-6.572,3.156-7.342,7.229
	c-0.188,0.999-0.216,2.044-0.545,2.987c-0.195,0.558-0.836,0.956-1.279,1.43c-0.416-0.523-1.132-1.012-1.195-1.573
	c-0.453-4.029,0.395-7.675,3.69-10.361c1.056-0.858,2.298-1.486,3.456-2.221C194.779,612.172,194.807,612.043,194.832,611.913z"/>
<path d="M92.748,645.183c0.884,1.823,1.768,3.646,2.65,5.472c-0.242,0.122-0.484,0.244-0.73,0.368
	c-0.613-0.942-1.171-1.927-1.849-2.817c-1.885-2.474-3.841-4.89-5.715-7.369c-0.379-0.501-0.524-1.179-0.775-1.776
	c0.728-0.064,1.533-0.364,2.161-0.146c1.008,0.353,1.896,1.045,2.836,1.595c4.723,2.759,9.605,5.109,15.025,6.205
	c0.646,0.13,1.177,0.833,1.76,1.271c-0.73,0.315-1.568,1.038-2.175,0.88c-3.415-0.887-6.794-1.932-10.141-3.054
	c-0.907-0.302-1.663-1.055-2.486-1.604C93.123,644.531,92.933,644.858,92.748,645.183z"/>
<path d="M108.338,618.465c2.763-0.985,5.299,0.086,6.209,2.624c0.902,2.52-0.266,5.007-2.798,5.966
	c-2.577,0.972-5.569-0.135-6.438-2.386C104.283,622.002,105.516,619.474,108.338,618.465z"/>
<path d="M85.434,634.701c3.69,0.526,7.39,1.015,11.069,1.625c0.467,0.078,0.832,0.78,1.243,1.193
	c-0.43,0.317-0.916,0.966-1.279,0.901c-3.514-0.609-7.016-1.308-10.498-2.081c-0.379-0.084-0.618-0.795-0.923-1.213
	C85.175,634.985,85.306,634.843,85.434,634.701z"/>
<path fill="none" stroke="#000000" stroke-width="4" stroke-linecap="round" stroke-miterlimit="10" d="M120.941,711.887
	c5.559-3.72,11.726-10.886,12.726-21.053s-2.334-24.167-8.834-26.5s-6.541-1.083-10.208-0.417"/>
<path fill="none" stroke="#000000" stroke-width="4" stroke-linecap="round" stroke-linejoin="round" stroke-miterlimit="10" d="
	M275.75,689.75c1.07-2.568,1.07-5.992,3.852-5.35c2.782,0.642,9.416,1.069,9.844-0.643c0.429-1.712,0-6.633,0-6.633"/>
<path fill="#E7BD62" d="M118.85,276.25c48.818-19.75,71.759-24.036,85.15-28.5c-2.5-13,1.447-21.25,1.447-21.25"/>
<path fill="#3A758C" stroke="#000000" stroke-width="4" stroke-linecap="round" stroke-linejoin="round" stroke-miterlimit="10" d="
	M136.897,102.239c0,0-78.989,71.594-75.776,125.928c1.213,23.667,15.936,43.229,27.074,47.614
	c11.138,4.385,30.884,5.332,42.345-6.809c11.461-12.14,21.462-29.806,26.128-33.473s45.912-12.139,46.372-6.318
	c0.46,5.818-0.942,16.451,4.009,22.885c4.952,6.435,28.285,17.102,55.285-14.565s2.723-75.392-17.639-92.029
	C224.333,128.835,201.127,118.978,136.897,102.239z"/>
<path fill="#E7BD62" d="M205.447,226.5c4.775-4.775,14.053-9.666,23.053-12.333s12.986-22.155,14.333-23.5S241,172,239.5,168
	s-5.5-9.5-5.5-9.5S221,170,216,169s-9.5-13.5-26.5-11.5s-23.982,12.107-29,15.5s-1,7.102-1,7.102s7.889,17.279,7.889,21.59
	c0,4.31-1.889,14.309-7.889,17.809s-0.301,5.27-0.301,5.27l1.109,3.676c0,0-13.31,35.306-41.459,47.806
	c48.818-19.75,72.15-23,85.15-28.5C202.417,232.333,205.447,226.5,205.447,226.5z"/>
<path fill="#EA6857" d="M138.333,251.167c-0.666,5.334-5.561,17.808-5.561,17.808s6.06-2.584,12.167-12.517
	c6.108-9.933,15.061-33.959,14.561-36.958s0.501-11.667,2.167-18.333s-0.334-21.666-5.334-28.666s-25.666-25.667-25.666-25.667
	s3.165,13.168-0.334,16.667s-6.53,5.333-16.432,5.333c-9.902,0-14.235,6.333-15.568,10s-10,13.667-12.333,13.667
	s-4.001,4.332-3.667,8.666S91,224.835,107,227.501s10.334-3.668,15.667-2.334s15.175,11.668,15.175,15.334
	S138.333,251.167,138.333,251.167z"/>
<path fill="#E3955C" d="M158.75,178c0,0-21.471,23.512-11,40.25c4.875,6.007,12.25,6,15.5,0s5.5-20.75,3-28S158.75,178,158.75,178z"
	/>
<path fill="none" stroke="#000000" stroke-width="4" stroke-linecap="round" stroke-linejoin="round" stroke-miterlimit="10" d="
	M159.375,223.75C157.625,234.875,150,248.5,150,248.5c-5.393,9.659-16.999,26.667-41.461,30.727
	c-11.847,1.965-25.981-3.787-34.534-15.266c-7.229-9.699-13.334-22-13.334-39.555s9.069-39.455,22.279-59.865
	c16.011-24.733,53.947-62.302,53.947-62.302s23.25,3.336,72.313,21.792c49.063,18.455,62.452,59.076,64.142,68.529
	c1.688,9.453,1.688,30.383-12.492,48.274c-14.178,17.894-38.483,18.739-38.483,18.739s-14.208,1.092-17.708-13.241
	s0.333-17.999,3.5-21.833"/>
<ellipse transform="matrix(-0.4973 -0.8676 0.8676 -0.4973 76.5026 182.109)" fill="#3A758C" stroke="#000000" stroke-width="4" stroke-linecap="round" stroke-linejoin="round" stroke-miterlimit="10" cx="91.011" cy="68.89" rx="37.277" ry="27.022"/>
<ellipse transform="matrix(0.0278 -0.9996 0.9996 0.0278 108.0526 213.7703)" fill="#3A758C" stroke="#000000" stroke-width="4" stroke-linecap="round" stroke-linejoin="round" stroke-miterlimit="10" cx="163.925" cy="51.336" rx="37.277" ry="27.022"/>
<path fill="#3A758C" stroke="#000000" stroke-width="4" stroke-linecap="round" stroke-linejoin="round" stroke-miterlimit="10" d="
	M255.184,77.072c-3.279,18.042-16.539,30.74-29.615,28.359c-13.075-2.373-21.018-18.925-17.739-36.965
	c3.28-18.038,16.538-30.736,29.614-28.358C250.52,42.483,258.461,59.033,255.184,77.072z"/>
<path fill="#3A758C" stroke="#000000" stroke-width="4" stroke-linecap="round" stroke-linejoin="round" stroke-miterlimit="10" d="
	M57.595,107.907c13.355,12.565,16.798,30.599,7.687,40.274c-9.105,9.682-27.313,7.342-40.666-5.223
	c-13.352-12.566-16.795-30.597-7.686-40.276C26.035,93.004,44.242,95.344,57.595,107.907z"/>
<path d="M238.245,161.129c-0.916-1.664-2.206-3.148-3.481-4.58c-1.05-1.178-2.25-0.906-3.365,0.137
	c-3.082,2.904-6.19,5.781-9.297,8.657c-3.389,3.138-8.593,2.987-11.679-0.438c-6.571-7.309-15.101-9.615-24.546-7.844
	c-5.58,1.047-10.738,3.539-15.344,6.975c-3.739,2.792-7.426,5.66-11.354,8.66c-0.793-0.967-1.779-2.047-2.627-3.226
	c-5.627-7.804-11.711-15.187-19.583-20.855c-2.443-1.761-5.095-3.244-7.742-4.692c-0.562-0.309-1.51,0.085-2.278,0.153
	c0.117,0.641,0.115,1.332,0.375,1.903c0.453,0.986,1.175,1.858,1.595,2.854c1.926,4.509,2.885,9.088,0.563,13.771
	c-1.426,2.881-3.571,4.676-6.985,4.471c-1.473-0.092-2.947-0.207-4.423-0.268c-11.42-0.479-17.228,2.627-21.019,11.592
	c-0.8,1.893-1.873,3.66-2.763,5.516c-2.227,4.605-6.052,6.281-10.916,5.87c-1.59-0.136-2.141,0.472-2.456,1.895
	c-1.358,6.116,0.069,11.904,2.186,17.532c1.936,5.139,5.307,9.355,9.415,12.995c6.537,5.79,14.042,8.003,22.658,6.252
	c1.701-0.339,3.401-0.741,5.118-0.905c0.239-0.021,0.462-0.013,0.694-0.021c0.183-0.014,0.365-0.047,0.548-0.055
	c3.437-1.102,7.139-0.521,9.788,2.727c1.34,1.643,1.96,3.404,2.426,5.329c0.29,0.815,0.508,1.649,0.696,2.493
	c0.017-0.172,0.04-0.344,0.053-0.518c0.501-6.673-3.616-12.971-9.447-13.844c-2.919-0.434-6.24,0.093-9.066,1.083
	c-7.437,2.616-13.833,0.616-19.717-3.781c-6.436-4.807-10.119-11.496-12.143-19.177c-0.386-1.463-0.053-2.475,1.112-3.548
	c1.385-1.282,2.399-2.962,3.625-4.423c0.437-0.521,0.957-1.059,1.551-1.338c3.16-1.465,5.493-3.775,7.113-6.812
	c1.207-2.267,2.408-4.545,3.478-6.879c2.405-5.245,8.505-8.905,14.604-8.593c2.053,0.107,4.114,0.273,6.137,0.623
	c4.115,0.715,6.923-1.082,9.098-4.355c2.125-3.206,3.156-6.717,3.211-10.549c0.016-1.121,0.151-2.236,0.253-3.641
	c0.604,0.393,0.945,0.549,1.205,0.791c5.607,5.31,11.045,10.783,15.352,17.238c1.277,1.916,2.195,4.069,3.328,6.086
	c0.693,1.227,0.498,2.18-0.35,3.315c-4.287,5.745-8.006,11.823-10.123,18.744c-1.739,5.669-2.925,11.362-0.288,17.122
	c2.411,5.271,5.935,9.009,12.229,9.011c0.3,0,0.598,0.132,1.046,0.233c-0.769,6.578,2.774,12.065,4.683-1.897
	c0.123-0.921,0.771-1.87,1.404-2.61c7.893-9.244,10.348-19.539,5.725-31.007c-1.547-3.847-3.771-7.427-5.738-11.101
	c-0.457-0.854-0.734-1.483,0.013-2.397c6.909-8.444,15.729-13.489,26.536-14.938c7.411-0.997,14.051,0.556,19.384,6.217
	c0.956,1.02,2.115,1.888,3.3,2.65c3.578,2.307,7.162,2.138,10.633-0.281c1.313-0.916,2.515-2.01,3.86-2.875
	c0.472-0.301,1.416-0.436,1.819-0.166c2.792,1.89,5.648,2.324,8.775,0.627c0.43,0.986,0.949,1.824,1.164,2.736
	c0.846,3.685,1.787,7.358,2.342,11.09c0.9,6.012,0.392,11.882-2.166,17.539c-2.992,6.612-7.131,12.031-14.121,14.766
	c-3.049,1.195-6.088,2.432-9.198,3.467c-4.249,1.417-7.302,4.344-9.677,7.887c-3.01,4.496-4.223,9.562-3.817,15.037
	c0.478,6.48,1.617,12.479,7.894,16.191c3.775,2.234,7.768,3.417,12.045,3.824c-2.287-1.291-4.598-2.488-6.95-3.59
	c-4.899-2.293-7.771-6.158-9.002-11.351c-2.534-10.712,1.476-18.997,11.021-24.163c3.762-2.029,8.01-3.137,11.938-4.884
	c2.207-0.979,4.568-2.047,6.244-3.7c4.193-4.142,7.125-9.328,8.27-15.021C245.57,184.492,244.438,172.398,238.245,161.129z
	 M164.902,208.539c-1.284,3.806-3.221,7.307-6.73,9.592c-3.721,2.432-6.719,1.51-9.232-2.126c-1.985-2.873-2.728-6.267-2.199-9.754
	c0.43-2.846,0.941-5.739,1.898-8.44c2.143-6.041,5.828-11.229,9.771-16.871C163.366,189.866,168.382,198.23,164.902,208.539z
	 M233.784,165.205c-1.315-0.041-2.618-0.615-3.925-0.958c-0.078-0.323-0.159-0.647-0.25-0.979c1.018-0.711,1.957-1.74,3.074-2.004
	c0.633-0.148,1.754,0.813,2.322,1.535C235.955,164.012,235.354,165.256,233.784,165.205z"/>
<path d="M198.832,173.913c2.197-0.017,4.408-0.138,6.596,0.024c0.574,0.043,1.084,0.971,1.621,1.49
	c-0.611,0.346-1.191,0.846-1.849,1.002c-1.05,0.243-2.164,0.194-3.231,0.381c-4.117,0.72-6.572,3.155-7.342,7.228
	c-0.188,0.999-0.216,2.044-0.545,2.987c-0.195,0.558-0.836,0.955-1.279,1.43c-0.416-0.523-1.132-1.012-1.195-1.573
	c-0.453-4.028,0.395-7.675,3.69-10.36c1.056-0.859,2.298-1.487,3.456-2.222C198.779,174.172,198.807,174.043,198.832,173.913z"/>
<path d="M96.748,207.184c0.884,1.822,1.768,3.646,2.65,5.471c-0.242,0.121-0.484,0.244-0.73,0.367
	c-0.613-0.941-1.171-1.926-1.849-2.816c-1.885-2.473-3.841-4.891-5.715-7.369c-0.379-0.501-0.524-1.179-0.775-1.775
	c0.728-0.065,1.533-0.365,2.161-0.147c1.008,0.353,1.896,1.045,2.836,1.595c4.723,2.76,9.605,5.109,15.025,6.205
	c0.646,0.13,1.177,0.833,1.76,1.271c-0.73,0.315-1.568,1.039-2.175,0.88c-3.415-0.886-6.794-1.931-10.141-3.054
	c-0.907-0.302-1.663-1.055-2.486-1.604C97.123,206.531,96.933,206.857,96.748,207.184z"/>
<path d="M112.338,180.465c2.763-0.986,5.299,0.086,6.209,2.624c0.902,2.519-0.266,5.007-2.798,5.966
	c-2.577,0.971-5.569-0.135-6.438-2.386C108.283,184.002,109.516,181.475,112.338,180.465z"/>
<path d="M89.434,196.701c3.69,0.527,7.39,1.015,11.069,1.625c0.467,0.078,0.832,0.779,1.243,1.193
	c-0.43,0.317-0.916,0.965-1.279,0.901c-3.514-0.608-7.016-1.308-10.498-2.081c-0.379-0.084-0.618-0.795-0.923-1.213
	C89.175,196.984,89.306,196.843,89.434,196.701z"/>
<path fill="none" stroke="#000000" stroke-width="4" stroke-linecap="round" stroke-miterlimit="10" d="M124.941,273.887
	c5.559-3.72,11.726-10.886,12.726-21.053s-2.334-24.167-8.834-26.5s-6.541-1.083-10.208-0.417"/>
<path d="M232.542,160.042c-0.035,0.015-0.069,0.029-0.104,0.044c-1.03,0.435-1.796,0.738-2.563,1.665
	c-0.792,0.958-1.418,1.291-1.209,2.208s-1.084,0.833,1.125,1.5s4.416,1.5,5.5,1.125s1.876-0.416,1.834-1.833
	s0.332-2.667-1.209-3.792S232.542,160.042,232.542,160.042z"/>
</svg>
